{
  "accessors": [
    {
      "bufferView": 2,
      "componentType": 5126,
      "count": 25788,
      "max": [
        7.442666053771973,
        10.37969970703125,
        13.694931983947754
      ],
      "min": [
        -7.442666053771973,
        -9.18654727935791,
        -1.7702348232269287
      ],
      "type": "VEC3"
    },
    {
      "bufferView": 2,
      "byteOffset": 309456,
      "componentType": 5126,
      "count": 25788,
      "max": [
        0.9999985098838806,
        0.9999982714653015,
        0.9999808073043823
      ],
      "min": [
        -0.9999985098838806,
        -0.9999997019767761,
        -0.9999528527259827
      ],
      "type": "VEC3"
    },
    {
      "bufferView": 1,
      "componentType": 5126,
      "count": 25788,
      "max": [
        0.8750001192092896,
        1.000000238418579
      ],
      "min": [
        0.0,
        0.0
      ],
      "type": "VEC2"
    },
    {
      "bufferView": 0,
      "componentType": 5125,
      "count": 129024,
      "type": "SCALAR"
    },
    {
      "bufferView": 2,
      "byteOffset": 618912,
      "componentType": 5126,
      "count": 2097,
      "max": [
        0.8053292632102966,
        1.1018606424331665,
        0.9920962452888489
      ],
      "min": [
        -0.8238176107406616,
        -1.0820525884628296,
        -1.4257376194000244
      ],
      "type": "VEC3"
    },
    {
      "bufferView": 2,
      "byteOffset": 644076,
      "componentType": 5126,
      "count": 2097,
      "max": [
        0.9997005462646484,
        0.9999911189079285,
        0.9956560134887695
      ],
      "min": [
        -0.9997592568397522,
        -0.9983838200569153,
        -0.9993165731430054
      ],
      "type": "VEC3"
    },
    {
      "bufferView": 1,
      "byteOffset": 206304,
      "componentType": 5126,
      "count": 2097,
      "max": [
        0.8750001192092896,
        1.0000001192092896
      ],
      "min": [
        0.125,
        0.0
      ],
      "type": "VEC2"
    },
    {
      "bufferView": 0,
      "byteOffset": 516096,
      "componentType": 5125,
      "count": 10560,
      "type": "SCALAR"
    },
    {
      "bufferView": 2,
      "byteOffset": 669240,
      "componentType": 5126,
      "count": 2150,
      "max": [
        0.9553419947624207,
        0.9553418755531311,
        1.1508452892303467
      ],
      "min": [
        -0.9553419947624207,
        -0.9553419947624207,
        -1.2514883279800415
      ],
      "type": "VEC3"
    },
    {
      "bufferView": 2,
      "byteOffset": 695040,
      "componentType": 5126,
      "count": 2150,
      "max": [
        1.0,
        1.0,
        1.0
      ],
      "min": [
        -1.0,
        -1.0,
        -1.0
      ],
      "type": "VEC3"
    },
    {
      "bufferView": 1,
      "byteOffset": 223080,
      "componentType": 5126,
      "count": 2150,
      "max": [
        1.0000001192092896,
        1.0000001192092896
      ],
      "min": [
        7.450580596923828e-08,
        0.01000000536441803
      ],
      "type": "VEC2"
    },
    {
      "bufferView": 0,
      "byteOffset": 558336,
      "componentType": 5125,
      "count": 10944,
      "type": "SCALAR"
    },
    {
      "bufferView": 2,
      "byteOffset": 720840,
      "componentType": 5126,
      "count": 2018,
      "max": [
        0.8504481911659241,
        0.8504481315612793,
        0.6603297591209412
      ],
      "min": [
        -0.8504481911659241,
        -0.8504481911659241,
        0.2672039270401001
      ],
      "type": "VEC3"
    },
    {
      "bufferView": 2,
      "byteOffset": 745056,
      "componentType": 5126,
      "count": 2018,
      "max": [
        1.0,
        1.0,
        1.0
      ],
      "min": [
        -1.0,
        -1.0,
        -1.0
      ],
      "type": "VEC3"
    },
    {
      "bufferView": 1,
      "byteOffset": 240280,
      "componentType": 5126,
      "count": 2018,
      "max": [
        0.0,
        0.0
      ],
      "min": [
        0.0,
        0.0
      ],
      "type": "VEC2"
    },
    {
      "bufferView": 0,
      "byteOffset": 602112,
      "componentType": 5125,
      "count": 12096,
      "type": "SCALAR"
    },
    {
      "bufferView": 2,
      "byteOffset": 769272,
      "componentType": 5126,
      "count": 674,
      "max": [
        0.9879766702651978,
        0.9879765510559082,
        0.14209720492362976
      ],
      "min": [
        -0.9879765510559082,
        -0.9879765510559082,
        -0.03475701063871384
      ],
      "type": "VEC3"
    },
    {
      "bufferView": 2,
      "byteOffset": 777360,
      "componentType": 5126,
      "count": 674,
      "max": [
        0.9952841997146606,
        0.9952840209007263,
        1.0
      ],
      "min": [
        -0.9952841401100159,
        -0.9952841401100159,
        -1.0
      ],
      "type": "VEC3"
    },
    {
      "bufferView": 1,
      "byteOffset": 256424,
      "componentType": 5126,
      "count": 674,
      "max": [
        0.0,
        0.0
      ],
      "min": [
        0.0,
        0.0
      ],
      "type": "VEC2"
    },
    {
      "bufferView": 0,
      "byteOffset": 650496,
      "componentType": 5125,
      "count": 4032,
      "type": "SCALAR"
    },
    {
      "bufferView": 2,
      "byteOffset": 785448,
      "componentType": 5126,
      "count": 2443,
      "max": [
        2.637310743331909,
        2.375582456588745,
        13.112150192260742
      ],
      "min": [
        -2.9504847526550293,
        -2.1530563831329346,
        7.858956813812256
      ],
      "type": "VEC3"
    },
    {
      "bufferView": 2,
      "byteOffset": 814764,
      "componentType": 5126,
      "count": 2443,
      "max": [
        0.9996218681335449,
        0.9998557567596436,
        0.998940110206604
      ],
      "min": [
        -0.9996706247329712,
        -0.9999516606330872,
        -0.9989333748817444
      ],
      "type": "VEC3"
    },
    {
      "bufferView": 1,
      "byteOffset": 261816,
      "componentType": 5126,
      "count": 2443,
      "max": [
        1.0,
        1.0
      ],
      "min": [
        0.0,
        0.0
      ],
      "type": "VEC2"
    },
    {
      "bufferView": 0,
      "byteOffset": 666624,
      "componentType": 5125,
      "count": 12516,
      "type": "SCALAR"
    },
    {
      "bufferView": 2,
      "byteOffset": 844080,
      "componentType": 5126,
      "count": 3237,
      "max": [
        5.2509894371032715,
        4.797085285186768,
        3.558037281036377
      ],
      "min": [
        -4.679130554199219,
        -4.9400787353515625,
        1.7825976610183716
      ],
      "type": "VEC3"
    },
    {
      "bufferView": 2,
      "byteOffset": 882924,
      "componentType": 5126,
      "count": 3237,
      "max": [
        0.999680757522583,
        0.9998604655265808,
        0.999987006187439
      ],
      "min": [
        -0.9985263347625732,
        -0.9998783469200134,
        -0.9999893307685852
      ],
      "type": "VEC3"
    },
    {
      "bufferView": 1,
      "byteOffset": 281360,
      "componentType": 5126,
      "count": 3237,
      "max": [
        1.0,
        1.0
      ],
      "min": [
        0.0,
        0.0
      ],
      "type": "VEC2"
    },
    {
      "bufferView": 0,
      "byteOffset": 716688,
      "componentType": 5125,
      "count": 17280,
      "type": "SCALAR"
    }
  ],
  "asset": {
    "extras": {
      "author": "Citron Vert (https://sketchfab.com/citron.vert)",
      "license": "CC-BY-4.0 (http://creativecommons.org/licenses/by/4.0/)",
      "source": "https://sketchfab.com/3d-models/brain-in-a-jar-6f6f748d02544a779a999d7cc9b0f6a6",
      "title": "Brain in a Jar"
    },
    "generator": "Sketchfab-13.74.0",
    "version": "2.0"
  },
  "bufferViews": [
    {
      "buffer": 0,
      "byteLength": 785808,
      "name": "floatBufferViews",
      "target": 34963
    },
    {
      "buffer": 0,
      "byteLength": 307256,
      "byteOffset": 785808,
      "byteStride": 8,
      "name": "floatBufferViews",
      "target": 34962
    },
    {
      "buffer": 0,
      "byteLength": 921768,
      "byteOffset": 1093064,
      "byteStride": 12,
      "name": "floatBufferViews",
      "target": 34962
    }
  ],
  "buffers": [
    {
      "byteLength": 2014832,
      "uri": "scene.bin"
    }
  ],
  "extensionsUsed": [
    "KHR_materials_transmission"
  ],
  "materials": [
    {
      "doubleSided": true,
      "name": "Material",
      "pbrMetallicRoughness": {
        "baseColorFactor": [
          0.8,
          0.453362,
          0.541969,
          1.0
        ],
        "metallicFactor": 0.0,
        "roughnessFactor": 0.1542831368628934
      }
    },
    {
      "alphaMode": "BLEND",
      "doubleSided": true,
      "extensions": {
        "KHR_materials_transmission": {
          "transmissionFactor": 0.7272372639611855
        }
      },
      "name": "Material.001",
      "pbrMetallicRoughness": {
        "baseColorFactor": [
          0.8,
          0.8,
          0.8,
          0.27276273603881457
        ],
        "metallicFactor": 0.0,
        "roughnessFactor": 0.8040408205773457
      }
    },
    {
      "doubleSided": true,
      "name": "Material.003",
      "pbrMetallicRoughness": {
        "baseColorFactor": [
          0.342384,
          0.257899,
          0.249814,
          1.0
        ],
        "roughnessFactor": 0.2152357035754776
      }
    },
    {
      "doubleSided": true,
      "name": "Material.002",
      "pbrMetallicRoughness": {
        "baseColorFactor": [
          0.00489563,
          0.00489563,
          0.00489563,
          1.0
        ],
        "metallicFactor": 0.0,
        "roughnessFactor": 0.2883787836305788
      }
    }
  ],
  "meshes": [
    {
      "name": "cerveau_Material_0",
      "primitives": [
        {
          "attributes": {
            "NORMAL": 1,
            "POSITION": 0,
            "TEXCOORD_0": 2
          },
          "indices": 3,
          "material": 0,
          "mode": 4
        }
      ]
    },
    {
      "name": "Cube.001_Material_0",
      "primitives": [
        {
          "attributes": {
            "NORMAL": 5,
            "POSITION": 4,
            "TEXCOORD_0": 6
          },
          "indices": 7,
          "material": 0,
          "mode": 4
        }
      ]
    },
    {
      "name": "Cylinder_Material.001_0",
      "primitives": [
        {
          "attributes": {
            "NORMAL": 9,
            "POSITION": 8,
            "TEXCOORD_0": 10
          },
          "indices": 11,
          "material": 1,
          "mode": 4
        }
      ]
    },
    {
      "name": "Circle_Material.003_0",
      "primitives": [
        {
          "attributes": {
            "NORMAL": 13,
            "POSITION": 12,
            "TEXCOORD_0": 14
          },
          "indices": 15,
          "material": 2,
          "mode": 4
        }
      ]
    },
    {
      "name": "Circle.001_Material.003_0",
      "primitives": [
        {
          "attributes": {
            "NORMAL": 17,
            "POSITION": 16,
            "TEXCOORD_0": 18
          },
          "indices": 19,
          "material": 2,
          "mode": 4
        }
      ]
    },
    {
      "name": "BezierCurve_Material.002_0",
      "primitives": [
        {
          "attributes": {
            "NORMAL": 21,
            "POSITION": 20,
            "TEXCOORD_0": 22
          },
          "indices": 23,
          "material": 3,
          "mode": 4
        }
      ]
    },
    {
      "name": "BezierCurve.001_Material.002_0",
      "primitives": [
        {
          "attributes": {
            "NORMAL": 25,
            "POSITION": 24,
            "TEXCOORD_0": 26
          },
          "indices": 27,
          "material": 3,
          "mode": 4
        }
      ]
    }
  ],
  "nodes": [
    {
      "children": [
        1
      ],
      "matrix": [
        1.0,
        0.0,
        0.0,
        0.0,
        0.0,
        2.220446049250313e-16,
        -1.0,
        0.0,
        0.0,
        1.0,
        2.220446049250313e-16,
        0.0,
        0.0,
        0.0,
        0.0,
        1.0
      ],
      "name": "Sketchfab_model"
    },
    {
      "children": [
        2
      ],
      "matrix": [
        0.009999999776482582,
        0.0,
        0.0,
        0.0,
        0.0,
        0.0,
        0.009999999776482582,
        0.0,
        0.0,
        -0.009999999776482582,
        0.0,
        0.0,
        0.0,
        0.0,
        0.0,
        1.0
      ],
      "name": "a03ea5d1d5d54b0ba0ac5b6738fd99cc.fbx"
    },
    {
      "children": [
        3,
        5,
        7,
        9,
        11,
        13,
        15
      ],
      "name": "RootNode"
    },
    {
      "children": [
        4
      ],
      "matrix": [
        25.07360076904297,
        0.0,
        0.0,
        0.0,
        0.0,
        -4.085008072092027e-06,
        -25.07360076904264,
        0.0,
        0.0,
        25.07360076904264,
        -4.085008072092027e-06,
        0.0,
        0.0,
        678.7174072265625,
        0.0,
        1.0
      ],
      "name": "cerveau"
    },
    {
      "mesh": 0,
      "name": "cerveau_Material_0"
    },
    {
      "children": [
        6
      ],
      "matrix": [
        201.71173095703125,
        0.0,
        0.0,
        0.0,
        0.0,
        -3.2863012248821844e-05,
        -201.71173095702858,
        0.0,
        0.0,
        201.71173095702858,
        -3.2863012248821844e-05,
        0.0,
        0.0,
        810.2711791992188,
        0.0,
        1.0
      ],
      "name": "Cube.001"
    },
    {
      "mesh": 1,
      "name": "Cube.001_Material_0"
    },
    {
      "children": [
        8
      ],
      "matrix": [
        411.54852294921875,
        0.0,
        0.0,
        0.0,
        0.0,
        -6.704976496159144e-05,
        -411.5485229492133,
        0.0,
        0.0,
        411.5485229492133,
        -6.704976496159144e-05,
        0.0,
        0.0,
        809.7706909179688,
        0.0,
        1.0
      ],
      "name": "Cylinder"
    },
    {
      "mesh": 2,
      "name": "Cylinder_Material.001_0"
    },
    {
      "children": [
        10
      ],
      "matrix": [
        590.6429443359375,
        0.0,
        0.0,
        0.0,
        0.0,
        -9.62279497692026e-05,
        -590.6429443359297,
        0.0,
        0.0,
        590.6429443359297,
        -9.62279497692026e-05,
        0.0,
        0.0,
        0.0,
        0.0,
        1.0
      ],
      "name": "Circle"
    },
    {
      "mesh": 3,
      "name": "Circle_Material.003_0"
    },
    {
      "children": [
        12
      ],
      "matrix": [
        494.4508056640625,
        0.0,
        0.0,
        0.0,
        0.0,
        -8.055626118462747e-05,
        -494.45080566405596,
        0.0,
        0.0,
        494.45080566405596,
        -8.055626118462747e-05,
        0.0,
        0.0,
        1258.1263427734375,
        0.0,
        1.0
      ],
      "name": "Circle.001"
    },
    {
      "mesh": 4,
      "name": "Circle.001_Material.003_0"
    },
    {
      "children": [
        14
      ],
      "matrix": [
        100.0,
        0.0,
        0.0,
        0.0,
        0.0,
        -1.629206793918314e-05,
        -99.99999999999868,
        0.0,
        0.0,
        99.99999999999868,
        -1.629206793918314e-05,
        0.0,
        0.0,
        0.0,
        0.0,
        1.0
      ],
      "name": "BezierCurve"
    },
    {
      "mesh": 5,
      "name": "BezierCurve_Material.002_0"
    },
    {
      "children": [
        16
      ],
      "matrix": [
        100.0,
        0.0,
        0.0,
        0.0,
        0.0,
        -1.629206793918314e-05,
        -99.99999999999868,
        0.0,
        0.0,
        99.99999999999868,
        -1.629206793918314e-05,
        0.0,
        0.0,
        0.0,
        0.0,
        1.0
      ],
      "name": "BezierCurve.001"
    },
    {
      "mesh": 6,
      "name": "BezierCurve.001_Material.002_0"
    }
  ],
  "scene": 0,
  "scenes": [
    {
      "name": "Sketchfab_Scene",
      "nodes": [
        0
      ]
    }
  ]
}
