{
  "accessors": [
    {
      "bufferView": 2,
      "componentType": 5126,
      "count": 86,
      "max": [
        0.5,
        0.5,
        0.5
      ],
      "min": [
        -0.5,
        -0.5,
        -0.5
      ],
      "type": "VEC3"
    },
    {
      "bufferView": 2,
      "byteOffset": 1032,
      "componentType": 5126,
      "count": 86,
      "max": [
        1.0,
        1.0,
        1.0
      ],
      "min": [
        -1.0,
        -1.0,
        -1.0
      ],
      "type": "VEC3"
    },
    {
      "bufferView": 1,
      "componentType": 5126,
      "count": 86,
      "max": [
        1.0,
        1.0
      ],
      "min": [
        0.0,
        0.0
      ],
      "type": "VEC2"
    },
    {
      "bufferView": 0,
      "componentType": 5125,
      "count": 324,
      "type": "SCALAR"
    },
    {
      "bufferView": 2,
      "byteOffset": 2064,
      "componentType": 5126,
      "count": 86,
      "max": [
        0.5,
        0.5,
        0.5
      ],
      "min": [
        -0.5,
        -0.5,
        -0.5
      ],
      "type": "VEC3"
    },
    {
      "bufferView": 2,
      "byteOffset": 3096,
      "componentType": 5126,
      "count": 86,
      "max": [
        1.0,
        1.0,
        1.0
      ],
      "min": [
        -1.0,
        -1.0,
        -1.0
      ],
      "type": "VEC3"
    },
    {
      "bufferView": 1,
      "byteOffset": 688,
      "componentType": 5126,
      "count": 86,
      "max": [
        1.0,
        1.0
      ],
      "min": [
        0.0,
        0.0
      ],
      "type": "VEC2"
    },
    {
      "bufferView": 0,
      "byteOffset": 1296,
      "componentType": 5125,
      "count": 324,
      "type": "SCALAR"
    },
    {
      "bufferView": 2,
      "byteOffset": 4128,
      "componentType": 5126,
      "count": 6926,
      "max": [
        0.5,
        0.5,
        0.5
      ],
      "min": [
        -0.5,
        -0.5,
        -0.5
      ],
      "type": "VEC3"
    },
    {
      "bufferView": 2,
      "byteOffset": 87240,
      "componentType": 5126,
      "count": 6926,
      "max": [
        1.0,
        1.0,
        1.0
      ],
      "min": [
        -1.0,
        -1.0,
        -1.0
      ],
      "type": "VEC3"
    },
    {
      "bufferView": 1,
      "byteOffset": 1376,
      "componentType": 5126,
      "count": 6926,
      "max": [
        1.0,
        1.0
      ],
      "min": [
        0.0,
        0.0
      ],
      "type": "VEC2"
    },
    {
      "bufferView": 0,
      "byteOffset": 2592,
      "componentType": 5125,
      "count": 39204,
      "type": "SCALAR"
    },
    {
      "bufferView": 2,
      "byteOffset": 170352,
      "componentType": 5126,
      "count": 6926,
      "max": [
        0.5,
        0.5,
        0.5
      ],
      "min": [
        -0.5,
        -0.5,
        -0.5
      ],
      "type": "VEC3"
    },
    {
      "bufferView": 2,
      "byteOffset": 253464,
      "componentType": 5126,
      "count": 6926,
      "max": [
        1.0,
        1.0,
        1.0
      ],
      "min": [
        -1.0,
        -1.0,
        -1.0
      ],
      "type": "VEC3"
    },
    {
      "bufferView": 1,
      "byteOffset": 56784,
      "componentType": 5126,
      "count": 6926,
      "max": [
        1.0,
        1.0
      ],
      "min": [
        0.0,
        0.0
      ],
      "type": "VEC2"
    },
    {
      "bufferView": 0,
      "byteOffset": 159408,
      "componentType": 5125,
      "count": 39204,
      "type": "SCALAR"
    },
    {
      "bufferView": 2,
      "byteOffset": 336576,
      "componentType": 5126,
      "count": 6926,
      "max": [
        0.5,
        0.5,
        0.5
      ],
      "min": [
        -0.5,
        -0.5,
        -0.5
      ],
      "type": "VEC3"
    },
    {
      "bufferView": 2,
      "byteOffset": 419688,
      "componentType": 5126,
      "count": 6926,
      "max": [
        1.0,
        1.0,
        1.0
      ],
      "min": [
        -1.0,
        -1.0,
        -1.0
      ],
      "type": "VEC3"
    },
    {
      "bufferView": 1,
      "byteOffset": 112192,
      "componentType": 5126,
      "count": 6926,
      "max": [
        1.0,
        1.0
      ],
      "min": [
        0.0,
        0.0
      ],
      "type": "VEC2"
    },
    {
      "bufferView": 0,
      "byteOffset": 316224,
      "componentType": 5125,
      "count": 39204,
      "type": "SCALAR"
    },
    {
      "bufferView": 2,
      "byteOffset": 502800,
      "componentType": 5126,
      "count": 86,
      "max": [
        0.5,
        0.5,
        0.5
      ],
      "min": [
        -0.5,
        -0.5,
        -0.5
      ],
      "type": "VEC3"
    },
    {
      "bufferView": 2,
      "byteOffset": 503832,
      "componentType": 5126,
      "count": 86,
      "max": [
        1.0,
        1.0,
        1.0
      ],
      "min": [
        -1.0,
        -1.0,
        -1.0
      ],
      "type": "VEC3"
    },
    {
      "bufferView": 1,
      "byteOffset": 167600,
      "componentType": 5126,
      "count": 86,
      "max": [
        1.0,
        1.0
      ],
      "min": [
        0.0,
        0.0
      ],
      "type": "VEC2"
    },
    {
      "bufferView": 0,
      "byteOffset": 473040,
      "componentType": 5125,
      "count": 324,
      "type": "SCALAR"
    },
    {
      "bufferView": 2,
      "byteOffset": 504864,
      "componentType": 5126,
      "count": 6926,
      "max": [
        0.5,
        0.5,
        0.5
      ],
      "min": [
        -0.5,
        -0.5,
        -0.5
      ],
      "type": "VEC3"
    },
    {
      "bufferView": 2,
      "byteOffset": 587976,
      "componentType": 5126,
      "count": 6926,
      "max": [
        1.0,
        1.0,
        1.0
      ],
      "min": [
        -1.0,
        -1.0,
        -1.0
      ],
      "type": "VEC3"
    },
    {
      "bufferView": 1,
      "byteOffset": 168288,
      "componentType": 5126,
      "count": 6926,
      "max": [
        1.0,
        1.0
      ],
      "min": [
        0.0,
        0.0
      ],
      "type": "VEC2"
    },
    {
      "bufferView": 0,
      "byteOffset": 474336,
      "componentType": 5125,
      "count": 39204,
      "type": "SCALAR"
    },
    {
      "bufferView": 2,
      "byteOffset": 671088,
      "componentType": 5126,
      "count": 6926,
      "max": [
        0.5,
        0.5,
        0.5
      ],
      "min": [
        -0.5,
        -0.5,
        -0.5
      ],
      "type": "VEC3"
    },
    {
      "bufferView": 2,
      "byteOffset": 754200,
      "componentType": 5126,
      "count": 6926,
      "max": [
        1.0,
        1.0,
        1.0
      ],
      "min": [
        -1.0,
        -1.0,
        -1.0
      ],
      "type": "VEC3"
    },
    {
      "bufferView": 1,
      "byteOffset": 223696,
      "componentType": 5126,
      "count": 6926,
      "max": [
        1.0,
        1.0
      ],
      "min": [
        0.0,
        0.0
      ],
      "type": "VEC2"
    },
    {
      "bufferView": 0,
      "byteOffset": 631152,
      "componentType": 5125,
      "count": 39204,
      "type": "SCALAR"
    },
    {
      "bufferView": 2,
      "byteOffset": 837312,
      "componentType": 5126,
      "count": 6926,
      "max": [
        0.5,
        0.5,
        0.5
      ],
      "min": [
        -0.5,
        -0.5,
        -0.5
      ],
      "type": "VEC3"
    },
    {
      "bufferView": 2,
      "byteOffset": 920424,
      "componentType": 5126,
      "count": 6926,
      "max": [
        1.0,
        1.0,
        1.0
      ],
      "min": [
        -1.0,
        -1.0,
        -1.0
      ],
      "type": "VEC3"
    },
    {
      "bufferView": 1,
      "byteOffset": 279104,
      "componentType": 5126,
      "count": 6926,
      "max": [
        1.0,
        1.0
      ],
      "min": [
        0.0,
        0.0
      ],
      "type": "VEC2"
    },
    {
      "bufferView": 0,
      "byteOffset": 787968,
      "componentType": 5125,
      "count": 39204,
      "type": "SCALAR"
    },
    {
      "bufferView": 2,
      "byteOffset": 1003536,
      "componentType": 5126,
      "count": 86,
      "max": [
        0.5,
        0.5,
        0.5
      ],
      "min": [
        -0.5,
        -0.5,
        -0.5
      ],
      "type": "VEC3"
    },
    {
      "bufferView": 2,
      "byteOffset": 1004568,
      "componentType": 5126,
      "count": 86,
      "max": [
        1.0,
        1.0,
        1.0
      ],
      "min": [
        -1.0,
        -1.0,
        -1.0
      ],
      "type": "VEC3"
    },
    {
      "bufferView": 1,
      "byteOffset": 334512,
      "componentType": 5126,
      "count": 86,
      "max": [
        1.0,
        1.0
      ],
      "min": [
        0.0,
        0.0
      ],
      "type": "VEC2"
    },
    {
      "bufferView": 0,
      "byteOffset": 944784,
      "componentType": 5125,
      "count": 324,
      "type": "SCALAR"
    },
    {
      "bufferView": 2,
      "byteOffset": 1005600,
      "componentType": 5126,
      "count": 86,
      "max": [
        0.5,
        0.5,
        0.5
      ],
      "min": [
        -0.5,
        -0.5,
        -0.5
      ],
      "type": "VEC3"
    },
    {
      "bufferView": 2,
      "byteOffset": 1006632,
      "componentType": 5126,
      "count": 86,
      "max": [
        1.0,
        1.0,
        1.0
      ],
      "min": [
        -1.0,
        -1.0,
        -1.0
      ],
      "type": "VEC3"
    },
    {
      "bufferView": 1,
      "byteOffset": 335200,
      "componentType": 5126,
      "count": 86,
      "max": [
        1.0,
        1.0
      ],
      "min": [
        0.0,
        0.0
      ],
      "type": "VEC2"
    },
    {
      "bufferView": 0,
      "byteOffset": 946080,
      "componentType": 5125,
      "count": 324,
      "type": "SCALAR"
    }
  ],
  "asset": {
    "extras": {
      "author": "LasquetiSpice (https://sketchfab.com/LasquetiSpice)",
      "license": "CC-BY-4.0 (http://creativecommons.org/licenses/by/4.0/)",
      "source": "https://sketchfab.com/3d-models/upwards-trending-bar-graph-on-phone-b005fc3213004e0c95e67a8158138677",
      "title": "Upwards Trending Bar Graph on Phone"
    },
    "generator": "Sketchfab-13.90.0",
    "version": "2.0"
  },
  "bufferViews": [
    {
      "buffer": 0,
      "byteLength": 947376,
      "name": "floatBufferViews",
      "target": 34963
    },
    {
      "buffer": 0,
      "byteLength": 335888,
      "byteOffset": 947376,
      "byteStride": 8,
      "name": "floatBufferViews",
      "target": 34962
    },
    {
      "buffer": 0,
      "byteLength": 1007664,
      "byteOffset": 1283264,
      "byteStride": 12,
      "name": "floatBufferViews",
      "target": 34962
    }
  ],
  "buffers": [
    {
      "byteLength": 2290928,
      "uri": "scene.bin"
    }
  ],
  "materials": [
    {
      "name": "Primitive_Material",
      "pbrMetallicRoughness": {
        "baseColorFactor": [
          0.0572851,
          1.0,
          0.0,
          1.0
        ],
        "metallicFactor": 0.0,
        "roughnessFactor": 0.5
      }
    },
    {
      "name": "Primitive_Material_copy",
      "pbrMetallicRoughness": {
        "baseColorFactor": [
          0.0666667,
          1.0,
          0.0,
          1.0
        ],
        "metallicFactor": 0.0,
        "roughnessFactor": 0.5
      }
    },
    {
      "name": "Primitive_Material_0",
      "pbrMetallicRoughness": {
        "baseColorFactor": [
          0.0,
          0.413445,
          0.4776,
          1.0
        ],
        "metallicFactor": 0.0,
        "roughnessFactor": 0.5
      }
    },
    {
      "name": "Primitive_Material_copy_0",
      "pbrMetallicRoughness": {
        "metallicFactor": 0.0,
        "roughnessFactor": 0.5
      }
    },
    {
      "name": "Primitive_Material_copy_1",
      "pbrMetallicRoughness": {
        "baseColorFactor": [
          0.0,
          0.413445,
          0.4776,
          1.0
        ],
        "metallicFactor": 0.0,
        "roughnessFactor": 0.5
      }
    },
    {
      "name": "Primitive_Material_1",
      "pbrMetallicRoughness": {
        "baseColorFactor": [
          0.0390448,
          1.38778e-17,
          0.1635,
          1.0
        ],
        "metallicFactor": 0.0,
        "roughnessFactor": 0.5
      }
    },
    {
      "name": "Primitive_Material_2",
      "pbrMetallicRoughness": {
        "baseColorFactor": [
          0.9904,
          0.975618,
          0.0,
          1.0
        ],
        "metallicFactor": 0.0,
        "roughnessFactor": 0.5
      }
    },
    {
      "name": "Primitive_Material_copy_2",
      "pbrMetallicRoughness": {
        "baseColorFactor": [
          0.992157,
          0.976471,
          0.0,
          1.0
        ],
        "metallicFactor": 0.0,
        "roughnessFactor": 0.5
      }
    },
    {
      "name": "Primitive_Material_copy_3",
      "pbrMetallicRoughness": {
        "baseColorFactor": [
          0.992157,
          0.976471,
          0.0,
          1.0
        ],
        "metallicFactor": 0.0,
        "roughnessFactor": 0.5
      }
    },
    {
      "name": "Primitive_Material_copy_4",
      "pbrMetallicRoughness": {
        "baseColorFactor": [
          0.0572851,
          1.0,
          0.0,
          1.0
        ],
        "metallicFactor": 0.0,
        "roughnessFactor": 0.5
      }
    },
    {
      "name": "Primitive_Material_copy_5",
      "pbrMetallicRoughness": {
        "baseColorFactor": [
          0.0572851,
          1.0,
          0.0,
          1.0
        ],
        "metallicFactor": 0.0,
        "roughnessFactor": 0.5
      }
    }
  ],
  "meshes": [
    {
      "name": "Object_0",
      "primitives": [
        {
          "attributes": {
            "NORMAL": 1,
            "POSITION": 0,
            "TEXCOORD_0": 2
          },
          "indices": 3,
          "material": 0,
          "mode": 4
        }
      ]
    },
    {
      "name": "Object_1",
      "primitives": [
        {
          "attributes": {
            "NORMAL": 5,
            "POSITION": 4,
            "TEXCOORD_0": 6
          },
          "indices": 7,
          "material": 1,
          "mode": 4
        }
      ]
    },
    {
      "name": "Object_2",
      "primitives": [
        {
          "attributes": {
            "NORMAL": 9,
            "POSITION": 8,
            "TEXCOORD_0": 10
          },
          "indices": 11,
          "material": 2,
          "mode": 4
        }
      ]
    },
    {
      "name": "Object_3",
      "primitives": [
        {
          "attributes": {
            "NORMAL": 13,
            "POSITION": 12,
            "TEXCOORD_0": 14
          },
          "indices": 15,
          "material": 3,
          "mode": 4
        }
      ]
    },
    {
      "name": "Object_4",
      "primitives": [
        {
          "attributes": {
            "NORMAL": 17,
            "POSITION": 16,
            "TEXCOORD_0": 18
          },
          "indices": 19,
          "material": 4,
          "mode": 4
        }
      ]
    },
    {
      "name": "Object_5",
      "primitives": [
        {
          "attributes": {
            "NORMAL": 21,
            "POSITION": 20,
            "TEXCOORD_0": 22
          },
          "indices": 23,
          "material": 5,
          "mode": 4
        }
      ]
    },
    {
      "name": "Object_6",
      "primitives": [
        {
          "attributes": {
            "NORMAL": 25,
            "POSITION": 24,
            "TEXCOORD_0": 26
          },
          "indices": 27,
          "material": 6,
          "mode": 4
        }
      ]
    },
    {
      "name": "Object_7",
      "primitives": [
        {
          "attributes": {
            "NORMAL": 29,
            "POSITION": 28,
            "TEXCOORD_0": 30
          },
          "indices": 31,
          "material": 7,
          "mode": 4
        }
      ]
    },
    {
      "name": "Object_8",
      "primitives": [
        {
          "attributes": {
            "NORMAL": 33,
            "POSITION": 32,
            "TEXCOORD_0": 34
          },
          "indices": 35,
          "material": 8,
          "mode": 4
        }
      ]
    },
    {
      "name": "Object_9",
      "primitives": [
        {
          "attributes": {
            "NORMAL": 37,
            "POSITION": 36,
            "TEXCOORD_0": 38
          },
          "indices": 39,
          "material": 9,
          "mode": 4
        }
      ]
    },
    {
      "name": "Object_10",
      "primitives": [
        {
          "attributes": {
            "NORMAL": 41,
            "POSITION": 40,
            "TEXCOORD_0": 42
          },
          "indices": 43,
          "material": 10,
          "mode": 4
        }
      ]
    }
  ],
  "nodes": [
    {
      "children": [
        1
      ],
      "matrix": [
        1.0,
        0.0,
        0.0,
        0.0,
        0.0,
        2.220446049250313e-16,
        -1.0,
        0.0,
        0.0,
        1.0,
        2.220446049250313e-16,
        0.0,
        0.0,
        0.0,
        0.0,
        1.0
      ],
      "name": "Sketchfab_model"
    },
    {
      "children": [
        2
      ],
      "name": "root"
    },
    {
      "children": [
        3,
        5,
        7,
        9,
        11,
        13,
        15,
        17,
        19,
        21,
        23
      ],
      "matrix": [
        1.0,
        0.0,
        0.0,
        0.0,
        0.0,
        2.220446049250313e-16,
        1.0,
        0.0,
        0.0,
        -1.0,
        2.220446049250313e-16,
        0.0,
        0.0,
        0.0,
        0.0,
        1.0
      ],
      "name": "GLTF_SceneRootNode"
    },
    {
      "children": [
        4
      ],
      "matrix": [
        1.243999401196415,
        0.6614462327422638,
        0.0,
        0.0,
        -0.1168070642070694,
        0.21968213096728845,
        0.0,
        0.0,
        0.0,
        0.0,
        0.191725492477417,
        0.0,
        -0.18982137739658356,
        1.6076778173446655,
        0.0,
        1.0
      ],
      "name": "cube (1)_1"
    },
    {
      "mesh": 0,
      "name": "Object_4"
    },
    {
      "children": [
        6
      ],
      "matrix": [
        0.10611480123686665,
        0.3470858470366721,
        0.0,
        0.0,
        -0.3442697234146302,
        0.10525382577225818,
        0.0,
        0.0,
        0.0,
        0.0,
        0.191725492477417,
        0.0,
        0.47005099058151245,
        1.959683895111084,
        0.0,
        1.0
      ],
      "name": "cube (2)_2"
    },
    {
      "mesh": 1,
      "name": "Object_6"
    },
    {
      "children": [
        8
      ],
      "matrix": [
        4.775362968444824,
        0.0,
        0.0,
        0.0,
        0.0,
        0.2326105237007141,
        0.0,
        0.0,
        0.0,
        0.0,
        2.503627300262451,
        0.0,
        0.0,
        -0.00043897557770833373,
        0.0,
        1.0
      ],
      "name": "cube (2)_3"
    },
    {
      "mesh": 2,
      "name": "Object_8"
    },
    {
      "children": [
        10
      ],
      "matrix": [
        4.610141277313232,
        0.0,
        0.0,
        0.0,
        0.0,
        0.21807228028774261,
        0.0,
        0.0,
        0.0,
        0.0,
        2.347149610519409,
        0.0,
        0.0,
        0.014115407131612301,
        0.0,
        1.0
      ],
      "name": "cube (3)_4"
    },
    {
      "mesh": 3,
      "name": "Object_10"
    },
    {
      "children": [
        12
      ],
      "matrix": [
        0.3068419098854065,
        0.0,
        0.0,
        0.0,
        0.0,
        0.2326105237007141,
        0.0,
        0.0,
        0.0,
        0.0,
        1.3269768953323364,
        0.0,
        2.150247573852539,
        0.015662357211112976,
        0.0,
        1.0
      ],
      "name": "cube (4)_5"
    },
    {
      "mesh": 4,
      "name": "Object_12"
    },
    {
      "children": [
        14
      ],
      "matrix": [
        0.3860527575016022,
        0.0,
        0.0,
        0.0,
        0.0,
        0.054718323051929474,
        0.0,
        0.0,
        0.0,
        0.0,
        1.0,
        0.0,
        1.6886242628097534,
        0.008157636038959026,
        0.7877469658851624,
        1.0
      ],
      "name": "cube (3)_6"
    },
    {
      "mesh": 5,
      "name": "Object_14"
    },
    {
      "children": [
        16
      ],
      "matrix": [
        0.6725040078163147,
        0.0,
        0.0,
        0.0,
        0.0,
        0.7308720350265503,
        0.0,
        0.0,
        0.0,
        0.0,
        0.9043743014335632,
        0.0,
        -1.667629599571228,
        0.48129895329475403,
        0.0,
        1.0
      ],
      "name": "cube (4)_7"
    },
    {
      "mesh": 6,
      "name": "Object_16"
    },
    {
      "children": [
        18
      ],
      "matrix": [
        0.6725040078163147,
        0.0,
        0.0,
        0.0,
        0.0,
        1.0083190202713013,
        0.0,
        0.0,
        0.0,
        0.0,
        0.9043743014335632,
        0.0,
        -0.756277859210968,
        0.6210758686065674,
        0.0,
        1.0
      ],
      "name": "cube (5)_8"
    },
    {
      "mesh": 7,
      "name": "Object_18"
    },
    {
      "children": [
        20
      ],
      "matrix": [
        0.6725040078163147,
        0.0,
        0.0,
        0.0,
        0.0,
        1.3839304447174072,
        0.0,
        0.0,
        0.0,
        0.0,
        0.9043743014335632,
        0.0,
        0.3641655147075653,
        0.8094274401664734,
        0.0,
        1.0
      ],
      "name": "cube (6)_9"
    },
    {
      "mesh": 8,
      "name": "Object_20"
    },
    {
      "children": [
        22
      ],
      "matrix": [
        -0.24235220719833328,
        0.4804365382800682,
        0.0,
        0.0,
        -0.22214224587723597,
        -0.11205780433160802,
        0.0,
        0.0,
        0.0,
        0.0,
        0.191725492477417,
        0.0,
        -0.7667286396026611,
        1.4698116779327393,
        0.0,
        1.0
      ],
      "name": "cube (7)_10"
    },
    {
      "mesh": 9,
      "name": "Object_22"
    },
    {
      "children": [
        24
      ],
      "matrix": [
        1.0848017431575467,
        0.5767993341425315,
        0.0,
        0.0,
        -0.1168070642070694,
        0.21968213096728845,
        0.0,
        0.0,
        0.0,
        0.0,
        0.191725492477417,
        0.0,
        -1.342471718788147,
        1.3273886442184448,
        0.0,
        1.0
      ],
      "name": "cube (8)_11"
    },
    {
      "mesh": 10,
      "name": "Object_24"
    }
  ],
  "scene": 0,
  "scenes": [
    {
      "name": "Sketchfab_Scene",
      "nodes": [
        0
      ]
    }
  ]
}
